<svg width="495" height="225" viewBox="0 0 495 225" xmlns="http://www.w3.org/2000/svg">
  <style>
    .card-bg { fill: #0d1117; }
    .title { font: 600 18px 'Segoe UI', Ubuntu, Sans-Serif; fill: #2d77dc; }
    .subtitle { font: 400 12px 'Segoe UI', Ubuntu, Sans-Serif; fill: #a1a1aa; }
    .hour-label { font: 400 11px 'Segoe UI', Ubuntu, Sans-Serif; fill: #a1a1aa; }
  </style>
  <rect x="0.5" y="0.5" rx="8" width="494" height="224" class="card-bg" stroke="none"/>
  <text x="25" y="35" class="title">Commit Times of Day</text>
  <text x="470" y="35" text-anchor="end" class="subtitle">872 commits</text>
  <line x1="25" y1="190" x2="470" y2="190" stroke="#21262d" stroke-width="1"/>
  <rect x="25.0" y="182.5" width="15.7" height="7.5" rx="2" fill="#2d77dc"/><rect x="43.7" y="172.5" width="15.7" height="17.5" rx="2" fill="#2d77dc"/><rect x="62.3" y="165.0" width="15.7" height="25.0" rx="2" fill="#2d77dc"/><rect x="81.0" y="146.2" width="15.7" height="43.8" rx="2" fill="#2d77dc"/><rect x="99.7" y="161.2" width="15.7" height="28.8" rx="2" fill="#2d77dc"/><rect x="118.3" y="138.8" width="15.7" height="51.2" rx="2" fill="#2d77dc"/><rect x="137.0" y="165.0" width="15.7" height="25.0" rx="2" fill="#2d77dc"/><rect x="155.7" y="157.5" width="15.7" height="32.5" rx="2" fill="#2d77dc"/><rect x="174.3" y="145.0" width="15.7" height="45.0" rx="2" fill="#2d77dc"/><rect x="193.0" y="125.0" width="15.7" height="65.0" rx="2" fill="#2d77dc"/><rect x="211.7" y="120.0" width="15.7" height="70.0" rx="2" fill="#2d77dc"/><rect x="230.3" y="153.8" width="15.7" height="36.2" rx="2" fill="#2d77dc"/><rect x="249.0" y="145.0" width="15.7" height="45.0" rx="2" fill="#2d77dc"/><rect x="267.7" y="142.5" width="15.7" height="47.5" rx="2" fill="#2d77dc"/><rect x="286.3" y="127.5" width="15.7" height="62.5" rx="2" fill="#2d77dc"/><rect x="305.0" y="150.0" width="15.7" height="40.0" rx="2" fill="#2d77dc"/><rect x="323.7" y="118.8" width="15.7" height="71.2" rx="2" fill="#2d77dc"/><rect x="342.3" y="60.0" width="15.7" height="130.0" rx="2" fill="#2d77dc"/><rect x="361.0" y="128.8" width="15.7" height="61.2" rx="2" fill="#2d77dc"/><rect x="379.7" y="121.2" width="15.7" height="68.8" rx="2" fill="#2d77dc"/><rect x="398.3" y="150.0" width="15.7" height="40.0" rx="2" fill="#2d77dc"/><rect x="417.0" y="150.0" width="15.7" height="40.0" rx="2" fill="#2d77dc"/><rect x="435.7" y="162.5" width="15.7" height="27.5" rx="2" fill="#2d77dc"/><rect x="454.3" y="181.2" width="15.7" height="8.8" rx="2" fill="#2d77dc"/>
  <text x="32.8" y="208" text-anchor="middle" class="hour-label">12am</text><text x="144.8" y="208" text-anchor="middle" class="hour-label">6am</text><text x="256.8" y="208" text-anchor="middle" class="hour-label">12pm</text><text x="368.8" y="208" text-anchor="middle" class="hour-label">6pm</text><text x="462.2" y="208" text-anchor="middle" class="hour-label">11pm</text>
</svg>
